<?xml version="1.0" encoding="UTF-8"?>
<svg width="957px" height="356px" viewBox="0 0 957 356" version="1.1" xmlns="http://www.w3.org/2000/svg" xmlns:xlink="http://www.w3.org/1999/xlink">
    <!-- Generator: Sketch 52.2 (67145) - http://www.bohemiancoding.com/sketch -->
    <title>inova</title>
    <desc>Created with Sketch.</desc>
    <g id="inova" stroke="none" stroke-width="1" fill="none" fill-rule="evenodd">
        <g id="mind" transform="translate(732.421846, 232.000000)" fill="#2A2A2A">
            <polygon id="Shape" points="0.144303101 0.371220451 11.8952727 0.371220451 35.5129279 56.0215223 58.6792904 0.371220451 70.488118 0.371220451 70.488118 85.7807853 58.0023512 85.7807853 58.0023512 32.5308401 57.7188468 32.5308401 40.4858271 73.5375569 30.0887359 73.5375569 12.8557162 32.5308401 12.6300699 32.5308401 12.6300699 85.7807853 0.144303101 85.7807853"></polygon>
            <path d="M87.0991636,24.9755505 L98.9079912,24.9755505 L98.9079912,85.7807853 L87.0991636,85.7807853 L87.0991636,24.9755505 Z M87.0991636,0.371220451 L98.9079912,0.371220451 L98.9079912,12.6144488 L87.0991636,12.6144488 L87.0991636,0.371220451 Z" id="Shape" fill-rule="nonzero"></path>
            <path d="M114.503628,24.9755505 L126.312456,24.9755505 L126.312456,31.418092 L126.538102,31.418092 C130.417484,26.6161791 135.503207,24.2137229 141.79527,24.2137229 C146.652452,24.2137229 151.098844,25.989321 155.128656,29.5435164 C159.120862,33.136703 161.212431,38.4095093 161.400469,45.3619354 L161.400469,85.7807853 L149.591642,85.7807853 L149.591642,49.5789807 C149.591642,45.3229442 148.498124,42.0806782 146.313983,39.855182 C144.167449,37.5876953 141.398942,36.4569513 138.00846,36.4569513 C134.617979,36.4569513 131.832113,37.5876953 129.64508,39.855182 C127.423331,42.0806782 126.312456,45.3229442 126.312456,49.5789807 L126.312456,85.7807853 L114.503628,85.7807853 L114.503628,24.9755505 Z" id="Shape"></path>
            <path d="M211.742756,79.3952309 C207.863375,83.9661961 202.797902,86.3266617 196.543447,86.4856257 C193.005428,86.4076434 189.970774,85.6458159 187.448162,84.2001431 C184.812728,82.7934616 182.608337,80.9188859 180.83788,78.5764162 C179.217855,76.6628494 178.144588,74.0654374 177.61808,70.7841803 C176.975855,67.6618871 176.654743,62.5060543 176.654743,55.3196811 C176.654743,48.0163345 176.975855,42.8215105 177.61808,39.7382085 C178.144588,36.612916 179.217855,34.0934864 180.83788,32.1799195 C184.153146,27.0630779 189.3893,24.4086788 196.543447,24.2137229 C199.557852,24.2137229 202.34661,24.858577 204.906828,26.1452857 C207.279009,27.5129761 209.558615,29.2705782 211.742756,31.418092 L211.742756,0.371220451 L223.551585,0.371220451 L223.551585,85.7807853 L211.742756,85.7807853 L211.742756,79.3952309 Z M200.159575,36.4569513 C197.373711,36.4569513 195.244534,36.9458406 193.77494,37.92062 C192.154915,38.976381 190.968824,40.4220537 190.21667,42.2546388 C189.502123,44.0932226 189.03058,46.0847717 188.804933,48.2322856 C188.579287,50.5357641 188.466464,52.8992291 188.466464,55.3196811 C188.466464,57.6231597 188.579287,59.8696511 188.804933,62.0561561 C189.03058,64.3596347 189.502123,66.4291662 190.21667,68.2647506 C190.968824,70.0223527 192.154915,71.4680254 193.77494,72.6017688 C195.244534,73.6935216 197.373711,74.2423974 200.159575,74.2423974 C202.948334,74.2423974 205.152725,73.6545305 206.772751,72.4847953 C208.392776,71.3510519 209.50365,69.866388 210.105374,68.0308036 C210.857529,66.1952191 211.366679,64.1466829 211.629933,61.8791962 C211.705149,59.6537 211.742756,57.467195 211.742756,55.3196811 C211.742756,52.9772114 211.705149,50.73072 211.629933,48.5832061 C211.366679,46.4356923 210.857529,44.4441432 210.105374,42.6085587 C209.50365,40.7729742 208.392776,39.2883103 206.772751,38.154567 C205.152725,37.023823 202.948334,36.4569513 200.159575,36.4569513 Z" id="Shape" fill-rule="nonzero"></path>
        </g>
        <g transform="translate(426.000000, 37.000000)" fill="#CB184B" id="Shape">
            <path d="M63.0142995,54.0986384 L88.785195,54.0986384 L88.785195,68.1673396 L89.2776324,68.1673396 C97.7458738,57.6797702 108.844658,52.4357673 122.569774,52.4357673 C133.17612,52.4357673 142.873351,56.3155087 151.669883,64.0745551 C160.386448,71.9191679 164.948861,83.4300426 165.35712,98.6058693 L165.35712,186.857218 L139.586226,186.857218 L139.586226,107.817363 C139.586226,98.5229222 137.204007,91.4462249 132.43536,86.5829055 C127.75089,81.6396949 121.706956,79.1669982 114.307767,79.1669982 C106.912787,79.1669982 100.826765,81.6396949 96.058118,86.5829055 C91.2095027,91.4462249 88.785195,98.5229222 88.785195,107.817363 L88.785195,186.857218 L63.0142995,186.857218 L63.0142995,54.0986384 Z"></path>
            <path d="M192.361214,120.351106 C192.361214,106.367972 193.472356,95.6241394 195.690429,88.1196096 C197.992679,80.787086 201.528128,74.6053443 206.296775,69.5743844 C209.832223,65.1406436 214.765016,61.1757722 221.095152,57.6797702 C227.341112,54.3544647 235.354795,52.6064637 245.136204,52.4357673 C255.250112,52.6064637 263.427941,54.3544647 269.673901,57.6797702 C275.839891,61.1757722 280.608539,65.1406436 283.979841,69.5743844 C289.07678,74.6053443 292.692198,80.787086 294.830301,88.1196096 C296.884229,95.6241394 297.911192,106.367972 297.911192,120.351106 C297.911192,134.334241 296.884229,144.990761 294.830301,152.325031 C292.692198,159.6593 289.07678,166.011302 283.979841,171.381035 C282.334174,173.345572 280.322336,175.262087 277.935908,177.13931 C275.802012,179.269741 273.045203,181.103309 269.673901,182.635647 C263.427941,186.302782 255.250112,188.223662 245.136204,188.393922 C235.354795,188.223662 227.341112,186.302782 221.095152,182.635647 C214.765016,179.313398 209.832223,175.55895 206.296775,171.381035 C201.528128,166.011302 197.992679,159.6593 195.690429,152.325031 C193.472356,144.990761 192.361214,134.334241 192.361214,120.351106 Z M272.140298,120.608679 C272.140298,111.139613 271.732037,104.237541 270.9071,99.8850009 C270.08637,95.7070865 268.402823,92.0399515 265.852249,88.8879617 C263.962468,85.9018661 261.16778,83.5579557 257.468185,81.852738 C253.932737,80.0623903 249.824882,79.1669982 245.136204,79.1669982 C240.780026,79.1669982 236.75214,80.0623903 233.052545,81.852738 C229.517097,83.5579557 226.64244,85.9018661 224.420158,88.8879617 C222.202085,92.0399515 220.598506,95.7070865 219.613632,99.8850009 C218.624548,104.237541 218.13211,111.056666 218.13211,120.351106 C218.13211,129.558234 218.624548,136.294412 219.613632,140.559639 C220.598506,144.907814 222.202085,148.745208 224.420158,152.067458 C226.64244,154.625721 229.517097,156.887121 233.052545,158.847292 C236.75214,160.724516 240.780026,161.663128 245.136204,161.663128 C249.824882,161.663128 253.932737,160.724516 257.468185,158.847292 C261.16778,156.887121 263.962468,154.625721 265.852249,152.067458 C268.402823,148.745208 270.08637,144.907814 270.9071,140.559639 C271.732037,136.294412 272.140298,129.645547 272.140298,120.608679 Z" fill-rule="nonzero"></path>
            <polygon points="306.791903 54.0986384 334.040111 54.0986384 364.129305 147.081901 364.621742 147.081901 394.58467 54.0986384 421.959144 54.0986384 374.979765 186.857218 353.771282 186.857218"></polygon>
            <path d="M504.204623,175.091827 L503.712186,175.091827 C501.329966,179.610261 497.630372,182.936876 492.613402,185.067307 C487.680609,187.28505 480.858035,188.393922 472.145679,188.393922 C457.843947,188.223662 446.825133,184.298955 439.097652,176.624165 C430.961911,169.124001 426.891937,159.532697 426.891937,147.850253 C426.891937,136.678588 430.427385,127.427804 437.494073,120.093534 C444.564971,112.589004 454.922994,108.755975 468.568142,108.585715 L504.204623,108.585715 L504.204623,94.6418711 C504.368769,82.9611732 495.614325,77.291084 477.94129,77.6320403 C471.526975,77.6320403 466.472126,78.3143893 462.772531,79.6786508 C458.908791,81.2987387 455.869989,84.0272617 453.647707,87.8664027 L433.428308,71.8768212 C443.209715,58.5751624 457.637714,52.094811 476.708092,52.4357673 C492.819637,52.2655074 505.686144,55.4201166 515.303406,61.9004679 C524.920669,68.5510791 529.811373,79.9768238 529.975518,96.1785752 L529.975518,186.857218 L504.204623,186.857218 L504.204623,175.091827 Z M504.204623,130.584159 L473.378877,130.584159 C458.416353,130.924679 451.017164,136.250756 451.181311,146.571121 C451.181311,151.089555 453.11318,154.92695 456.976921,158.07894 C460.676515,161.575815 466.800417,163.326435 475.352836,163.326435 C486.119119,163.496695 493.724543,162.173907 498.160689,159.358072 C502.192784,156.546601 504.204623,150.150943 504.204623,140.175463 L504.204623,130.584159 Z" fill-rule="nonzero"></path>
            <path d="M0.24906027,54.3716316 L27.5039328,39.4406316 L27.5039328,186.858239 L0.24906027,186.858239 L0.24906027,54.3716316 Z M27.5039328,16.7263405 L0.24906027,31.6573405 L0.24906027,0.380631646 L27.5039328,0.380631646 L27.5039328,16.7263405 Z" fill-rule="nonzero"></path>
        </g>
        <g id="icon" fill-rule="nonzero">
            <path d="M158.071567,326.411455 L141.171951,342.780754 C141.87262,343.692538 142.414727,344.752005 142.691138,345.959155 C143.7025,350.338285 141.077671,354.734538 136.83509,355.776882 C132.590365,356.819226 128.330643,354.109559 127.323565,349.732569 C126.393626,345.700174 128.559914,341.693463 132.217533,340.259437 L133.537447,302.184977 C132.140395,301.874628 130.912617,300.958564 130.203378,299.635835 L92.4208333,295.395827 C92.3008415,295.885964 92.1294241,296.3654 91.8615845,296.817011 C90.4023932,299.261276 87.3104518,300.029657 84.9448911,298.525 C83.1235809,297.369218 82.2750641,295.218179 82.6371838,293.178438 L58.9408667,280.085994 C58.0130698,280.965673 56.8302895,281.571388 55.4868054,281.744755 C52.041315,282.194226 48.8958052,279.670769 48.4672616,276.117809 C48.0837151,272.973653 49.9500224,270.077777 52.7655537,269.14459 L47.8887278,241.880973 C45.0918381,241.592028 42.720278,239.398182 42.2876632,236.393149 C42.0384651,234.640213 42.4965782,232.945065 43.4340173,231.615916 L12.7157994,202.96108 C12.2236171,203.20936 11.6887947,203.384867 11.1091895,203.453358 C8.34786901,203.776549 5.85503103,201.732527 5.54176567,198.883738 C5.29878146,196.664208 6.4537064,194.630888 8.2733024,193.674157 L4.93023398,151.995369 C2.33068865,151.398215 0.276679282,149.153001 0.0253384739,146.267826 C-0.283641445,142.697744 2.26897837,139.547167 5.72496805,139.226116 C6.17665298,139.18331 6.61976703,139.198292 7.05023906,139.253941 L29.5759893,87.5626546 L64.0769614,52.7900932 L65.6432882,55.4627323 L33.8012148,87.0324936 L65.4290164,84.9184819 L65.6432882,88.6867596 L31.9091949,89.9339347 L56.0053432,123.849934 L53.0162517,126.045919 L30.1982346,92.1864258 L9.46636775,140.105795 C11.1539724,141.133157 12.3598939,142.943882 12.5452391,145.112044 C12.6240911,145.963898 12.5240262,146.787928 12.2981837,147.56273 L45.3671774,167.001273 C46.5647424,166.029561 48.0151481,165.588651 49.4486264,165.633598 L53.5240758,129.990561 L59.3522684,131.585112 C59.3351267,131.597954 81.2958422,186.698797 81.2958422,186.698797 C82.0243664,186.705219 82.7571763,186.790832 83.4835569,187.028409 C86.8454815,188.124262 88.9089188,191.431083 88.7096461,194.909132 L130.156238,196.642804 L132.978198,239.691408 C134.546667,239.984635 135.900865,241.03768 136.612247,242.583004 L175.731847,238.208155 L176.087538,242.011534 L137.062218,245.583757 C137.038648,245.744282 162.894825,265.52528 171.264281,271.927029 C172.05923,271.1137 172.995597,270.420231 174.064813,269.900129 C177.293889,268.348384 180.904369,268.720803 183.702758,270.550791 L208.579713,251.478246 C208.399725,251.080143 176.576078,241.79536 176.576078,241.79536 L176.747496,238.167488 L208.099744,245.326917 C209.006114,241.816763 211.881641,239.137061 215.487836,238.676889 L214.555753,189.147343 L220.424658,190.14474 L220.043253,239.353235 C222.273823,240.348492 224.041565,242.266234 224.862226,244.661272 L252.462575,241.596308 C252.685417,241.09761 252.951115,240.635297 253.27038,240.220072 L221.386738,189.945689 L226.135,186.703078 L255.918779,238.253102 C256.673016,237.951315 257.487249,237.816473 258.312195,237.831456 L265.961698,202.164875 L269.535751,203.006027 L261.361283,238.717555 C261.849822,239.019342 262.274081,239.396042 262.659769,239.811267 L281.684961,230.132662 C281.046432,228.187095 281.56497,225.965426 283.161295,224.542101 C284.624771,223.238636 286.608927,222.983936 288.288818,223.670984 L297.395369,206.907862 C296.874689,206.237936 296.531854,205.413906 296.381864,204.517105 L275.756061,199.737732 L277.180969,196.079896 L297.20681,200.718007 C297.753203,199.902538 298.518153,199.262577 299.430951,198.879457 L298.698142,160.034475 L304.864883,159.74553 L303.384265,198.958649 C304.052793,199.271139 304.646327,199.72275 305.12201,200.29208 L324.331475,193.652753 C324.286478,190.970911 325.835664,188.436752 328.40264,187.456477 C330.667492,186.5875 333.088764,187.171812 334.77294,188.729978 L351.34472,178.648989 C351.113306,178.032572 350.995457,177.375488 351.008314,176.6863 L308.258949,157.530281 L310.945917,152.866486 L351.792548,173.974492 C352.405365,172.996358 353.324592,172.268644 354.385237,171.889804 L350.528344,143.934859 C349.032727,143.457563 347.879945,142.286799 347.33998,140.824948 L311.314464,149.728751 L310.078116,145.062816 L347.202846,137.545952 C347.792094,135.446281 349.59412,133.952325 351.702554,133.815344 L357.404326,100.207768 L321.918775,102.722664 L322.145904,98.1830087 L358.237843,97.4766971 L374.218233,80.2861502 C373.526136,78.6935252 373.667555,76.8765929 374.528928,75.4359319 L352.266089,56.5602973 L353.950265,54.2110631 L376.450945,73.6057294 C378.687943,72.3827407 381.497046,73.0359717 382.954094,75.2443717 C384.428284,77.4838068 383.963315,80.4687208 381.979158,82.1580891 C381.979158,82.1580891 390.910006,111.932536 391,112.334919 L382.137719,145.891126 C385.02396,147.766062 385.951757,151.672178 384.194728,154.709316 C382.521265,157.598772 379.020064,158.628274 376.129538,157.219932 L360.564835,174.571647 C360.971951,175.468448 361.141226,176.493669 360.98695,177.548856 C360.573406,180.382662 358.017144,182.33893 355.268036,181.913003 C354.460232,181.791004 353.740279,181.45069 353.116748,180.996939 L336.632819,191.865572 C337.464193,195.065376 335.848584,198.447109 332.780213,199.620014 C330.069674,200.660218 327.123437,199.626435 325.50997,197.31487 L306.315503,203.982021 C306.165514,206.524742 304.23921,208.639395 301.70866,208.842727 C301.286545,208.876973 300.875143,208.838446 300.478741,208.767816 L290.487247,225.432482 C292.017147,227.596362 291.725738,230.629221 289.728725,232.412121 C287.843133,234.088005 285.109025,234.051619 283.255574,232.474191 L264.292521,243.068861 C264.491794,244.124047 264.463938,245.247724 264.108247,246.345717 C263.00689,249.744573 259.445692,251.578842 256.154478,250.444463 C253.926051,249.673942 252.417578,247.728375 251.999748,245.504565 L225.2522,249.004016 C224.645812,253.222621 221.217463,256.544424 216.932027,256.734915 C214.911444,256.824808 213.04728,256.176287 211.515237,255.063311 L186.546144,273.363195 C186.876123,273.853332 187.180389,274.369153 187.431087,274.925641 C189.775221,280.12452 187.591791,286.299393 182.562832,288.720115 C180.323692,289.798845 177.898135,289.950809 175.688993,289.330111 L165.76821,316.959725 C167.280968,318.07056 168.264476,319.859882 168.264476,321.87822 C168.264476,325.244971 165.528225,327.978182 162.15773,327.978182 C160.587118,327.978182 159.155782,327.385308 158.071567,326.411455 Z M161.977741,315.780399 L171.54712,286.992863 C171.045724,286.524129 170.587182,285.993325 170.182209,285.413294 L139.577769,296.737818 C139.742758,298.923103 138.553549,300.986388 136.616532,301.874628 L134.827363,339.698669 C136.305838,339.660142 137.722175,340.066806 138.962809,340.805223 L156.348822,323.761717 C156.155977,323.168843 156.050984,322.535304 156.050984,321.87822 C156.050984,318.571399 158.690812,315.876714 161.977741,315.780399 Z M92.4144056,292.746089 L129.569134,297.120939 C129.569134,296.299049 129.761978,295.515685 130.109099,294.802953 L102.840871,272.417166 L91.1630584,290.492314 C91.7715901,291.132275 92.1958481,291.911358 92.4144056,292.746089 Z M133.398171,292.080445 C135.446609,291.568903 137.512188,292.442162 138.671399,294.115905 L168.645879,282.132157 C167.943068,279.583015 168.234477,276.924716 169.335835,274.653818 C169.335835,274.653818 134.032415,249.603311 133.651011,249.72531 C132.226104,250.204745 130.749771,249.967168 129.556278,249.233032 L107.589133,266.387835 C107.777693,267.605687 107.529138,268.808557 106.954889,269.823077 C106.954889,269.823077 132.99534,292.181041 133.398171,292.080445 Z M92.5751096,238.653345 L59.4872597,271.11156 C60.2543527,272.040467 60.7814613,273.200529 60.9378797,274.499714 C61.0407302,275.315183 60.9721632,276.115669 60.7921748,276.864787 L83.8113928,290.663541 C85.1034523,289.150323 87.1326058,288.578853 88.9839142,289.141761 L99.8132104,271.458295 C98.9239821,270.833316 98.2104569,269.923673 97.8547658,268.785013 C97.164811,266.574045 98.0004708,264.262481 99.7382151,262.986839 L95.6841929,238.809589 C94.62569,239.034325 93.5586165,238.965834 92.5751096,238.653345 Z M88.7674995,235.280173 L54.6404318,236.742024 C54.2033174,238.94229 52.6927013,240.797963 50.5928377,241.557783 L56.3653198,269.054696 C56.682442,269.14245 85.3605785,242.390374 89.590303,236.598621 C89.2688957,236.202659 88.9924847,235.759609 88.7674995,235.280173 Z M99.0354041,236.864023 L102.673739,262.025828 C103.603678,262.030109 104.492906,262.310493 105.264285,262.802771 L127.280711,246.163789 C126.603612,243.623208 127.874244,240.990594 130.216234,239.999617 L126.809313,200.307062 L87.6704279,198.406443 C86.1233858,201.096846 83.1450077,202.590802 80.1130618,202.128489 L53.2926623,231.26276 C53.8904806,231.988335 54.3233096,232.863733 54.5654367,233.835446 L88.2489622,231.245637 C88.6646489,228.985442 90.2309757,227.027033 92.5001143,226.273634 C95.8063275,225.177782 99.3439552,227.048436 100.411029,230.462274 C101.133124,232.775979 100.528878,235.198841 99.0354041,236.864023 Z M45.3281799,229.852278 C46.0035646,229.441333 46.7601583,229.145967 47.5866046,229.023967 C48.8508081,228.827056 50.0828709,229.045371 51.1628007,229.567613 L76.7211399,200.666638 C74.6662732,199.09135 73.4963492,196.522945 73.7020502,193.851805 L15.283204,199.964608 C15.1340708,200.416219 14.9232274,200.848568 14.661173,201.240249 L45.3281799,229.852278 Z M56.5110245,132.937806 L53.0098235,166.91994 C53.294805,167.142536 53.5733583,167.386534 53.826199,167.669059 C56.1917596,170.290972 56.0417693,174.398279 53.4962205,176.840404 C51.3363609,178.912251 48.1437112,179.09846 45.7807219,177.497488 L14.8103061,195.606881 C15.1042871,196.10344 15.3237014,196.657787 15.4387653,197.263503 L74.5869926,190.739754 C75.525503,188.946151 77.0918301,187.649108 78.9067118,187.047673 L56.5110245,132.937806 Z M10.7875676,193.12409 C11.5141632,193.162616 12.1959761,193.37665 12.8137216,193.704121 L43.4687293,174.65726 C42.8552692,173.171866 42.7976301,171.508824 43.300526,169.995605 L10.9514855,150.015557 C10.0631147,151.032217 8.86340696,151.744949 7.49335312,152.025333 L10.7875676,193.12409 Z M357.350758,171.799909 C358.059998,172.001101 358.698528,172.347836 359.238493,172.81871 L373.967536,155.49482 C372.324071,153.435815 372.00052,150.465027 373.406143,148.044306 C374.685346,145.833338 377.03805,144.718222 379.369327,144.936536 L387.288813,115.0082 L356.838649,137.501005 C357.027208,138.155948 357.095775,138.860119 357.016494,139.581412 C356.810794,141.426383 355.685867,142.920338 354.173108,143.665176 L357.350758,171.799909 Z M354.590303,134.534497 L386.371729,111.917553 L360.60769,102.309579 C358.647103,112.465479 354.556654,134.513094 354.590303,134.534497 Z M379.658594,83.2732046 C378.304396,83.5152774 376.909487,83.1655457 375.797416,82.3098392 L362.467568,98.4569719 L387.526654,109.062343 L379.658594,83.2732046 Z M317.978317,93.2994009 L342.146032,55.9336065 L344.250181,57.6338905 L321.213821,96.0191274 L317.978317,93.2994009 Z M135.926578,71.8656352 L134.638804,75.5369558 L107.942682,63.3839066 L109.459726,59.8181047 L135.926578,71.8656352 Z M96.6077042,55.4055853 L95.7549026,59.0261799 L75.8511961,53.3949525 L76.2583126,50.555367 L96.6077042,55.4055853 Z M275.033965,17.1444878 C273.495494,19.4738169 270.617824,20.5957817 267.892287,19.665163 C265.389592,18.8118106 263.763269,16.4867622 263.59828,13.928631 L214.193633,7.25249096 L170.261489,16.5152286 L128.894177,17.8240449 L130.501216,20.1161321 L107.953396,54.3167957 L104.985731,52.1567673 L127.561407,19.8500882 L76.1597476,49.8272242 L73.8713249,46.0086485 L127.83996,16.3153212 L170.81431,12.5581731 L214.208632,5 L264.151101,10.8840012 C265.447446,7.87062038 268.745089,6.28677078 271.834888,7.34259917 C274.633277,8.29740367 276.323881,11.0886175 276.111752,13.9900587 L297.744632,22.9274652 L295.231224,26.7351252 L275.033965,17.1444878 Z M311.982992,34.8123301 L313.21077,30.2435661 L342.347448,46.1295776 L340.763979,48.8923249 L311.982992,34.8123301 Z" id="Shape" fill="#2A2A2A"></path>
            <path d="M55.3487252,120.725908 C58.6761224,120.409086 61.6090344,122.825926 62.1214364,126.18253 L91.8986395,143.355153 C92.1709205,141.263698 92.9791867,139.375608 94.1583545,137.804341 L67.5413205,89.986656 C67.449131,90.0241177 67.3655173,90.0767786 67.2711839,90.1097456 C65.0350529,90.8512808 62.6381263,89.5839915 61.9199059,87.276113 C61.1995415,84.9684483 62.4258761,82.4955215 64.662007,81.7542001 C65.8797658,81.3515364 67.1361156,81.5559723 68.145912,82.1853354 L95.5133256,62.1501805 C93.7681569,58.6873987 94.7093471,54.3576371 97.9016761,52.0718072 C101.359854,49.5903183 106.110828,50.4701422 108.514186,54.0453103 C110.915401,57.6138422 110.064256,62.5198778 106.603934,65.0015809 C103.557394,67.1840153 99.51392,66.7593022 96.9497661,64.1896167 L69.7924591,84.0618655 C69.8053228,84.0884098 69.8160424,84.1147402 69.8289061,84.1410706 L133.235976,77.3546525 C133.401059,72.0921916 136.421873,67.1619662 141.38081,64.9112437 L132.140422,22.4636961 C129.11532,22.9873091 126.090218,21.1812081 125.121157,18.076778 C124.059906,14.6623759 125.877969,11.0058616 129.181782,9.91047004 C132.492028,8.80801422 136.03382,10.6824032 137.097215,14.0970194 C138.094147,17.2892178 136.55051,20.6685126 133.639037,21.9950988 L144.543123,63.9211741 C150.668364,62.8191464 156.941537,66.154343 159.462812,72.3231722 C159.479963,72.3606343 159.486396,72.4045184 159.503547,72.4441212 L180.945106,65.5814941 C180.151848,59.1990239 182.703138,52.9068908 187.475552,48.9887841 L176.174836,24.551512 C171.237339,26.4348919 165.639508,24.127013 163.379793,19.1130866 C161.004306,13.8328581 163.22543,7.56512899 168.336586,5.10761573 C173.45203,2.65245724 179.525817,4.93828708 181.90988,10.2206562 C182.844638,12.301836 183.061176,14.5347908 182.673123,16.6271021 L247.833937,37.8595457 C249.296105,35.9566855 251.392879,34.5506796 253.881996,34.0381982 C258.195606,33.1427471 262.412739,35.171266 264.631719,38.7924589 L293.356247,31.1715989 C292.573708,25.4381862 296.340613,20.0680488 301.906285,19.1000283 C307.566291,18.1142401 312.930433,22.0479739 313.884486,27.8912041 C314.772078,33.3075804 311.549734,38.4580829 306.560782,39.9606339 L316.997489,91.6724503 C320.721516,92.6670153 323.287814,96.326312 322.865457,100.391484 C322.417374,104.68357 318.80912,107.798275 314.68632,107.616316 C314.692753,107.616316 314.701328,107.618457 314.712048,107.618457 L306.327093,140.026378 C310.096142,142.23129 312.351568,146.673224 311.648356,151.354915 C310.741468,157.402367 305.252978,161.542463 299.393586,160.600559 C294.966347,159.89199 291.593927,156.48187 290.60557,152.245443 L258.913827,155.411524 C258.455023,156.888601 257.715363,158.290754 256.604802,159.485259 C255.83727,160.313707 254.949679,160.940929 254.019208,161.450413 L267.294494,185.905667 C271.58452,184.92309 275.971025,187.408433 277.343147,191.811834 C278.803172,196.482822 276.314055,201.485617 271.788195,202.992663 C267.260191,204.495428 262.412739,201.926599 260.954859,197.257752 C259.7371,193.35099 261.302177,189.238723 264.48593,187.108736 L249.482628,162.719843 C247.41158,162.762657 245.34482,162.133294 243.561062,160.876708 L227.288545,174.789059 C227.719478,175.510472 228.083948,176.281121 228.345508,177.122413 C230.075669,182.671084 227.123462,188.615782 221.7486,190.398978 C216.371595,192.186455 210.612969,189.135971 208.882807,183.58944 C208.734876,183.118488 208.634111,182.645395 208.55264,182.172302 L181.101614,184.220943 C181.11019,187.828008 178.706831,191.081858 175.156464,191.895321 C175.150032,191.897462 175.1436,191.897462 175.1436,191.897462 L176.142677,233.050105 C178.95124,232.859584 181.637599,234.627794 182.538054,237.519868 C183.599306,240.929988 181.787675,244.586289 178.481717,245.684463 C175.173615,246.786919 171.631824,244.907392 170.570573,241.497272 C169.590792,238.359019 171.059392,235.045229 173.867955,233.668765 L172.365052,191.972386 C170.229686,191.629875 168.325866,190.37543 167.142411,188.502326 L134.663841,197.679468 C134.764606,200.742797 132.753589,203.544961 129.747783,204.229983 C127.822523,204.673105 125.920847,204.127229 124.490838,202.95199 C124.490838,202.95199 98.7356695,228.036607 98.8621621,227.925291 C98.4376613,227.355867 97.8995323,226.951277 97.3142364,226.670846 L123.090845,201.355034 C122.713511,200.738515 122.409071,200.055635 122.246132,199.299971 C121.609381,196.341536 123.06083,193.419493 125.567097,192.115812 L105.036714,156.231409 C104.093379,156.413368 103.12003,156.48187 102.112377,156.402664 C97.3871298,156.021621 93.5859214,152.662877 92.2824056,148.248772 L61.9627847,129.010382 C61.2617158,131.487162 59.167085,133.398799 56.5236052,133.653541 C53.0654275,133.987489 49.9995912,131.363002 49.6737121,127.796611 C49.3521209,124.228079 51.8926915,121.061997 55.3487252,120.725908 Z M128.156979,191.422228 C130.59464,191.325897 132.839347,192.710924 133.949908,194.917977 L165.986826,185.199239 C165.570902,181.744164 167.382532,178.438937 170.407633,177.056051 L156.444143,152.521591 C152.441404,152.311804 148.785984,149.60597 147.480323,145.429482 C147.190891,144.498282 147.042959,143.554237 147.017232,142.618755 L112.98216,150.098329 C112.060266,151.975716 110.658128,153.538419 108.955838,154.643016 L128.156979,191.422228 Z M353.384465,169.854766 C356.692567,168.754451 360.236501,170.631837 361.297753,174.044099 C362.365435,177.45636 360.547373,181.112661 357.239271,182.212976 C353.933314,183.313291 350.387234,181.433764 349.325984,178.023643 C348.262589,174.611382 350.076363,170.955081 353.384465,169.854766 Z M174.067342,176.430969 C176.865186,176.649319 179.358589,178.423953 180.482015,181.123363 L208.556929,178.436797 C208.79705,177.128835 209.270861,175.878671 209.954779,174.756949 L162.228497,150.952465 C161.58317,151.372041 160.882102,151.725255 160.123146,151.9907 L174.067342,176.430969 Z M212.021538,172.295154 C213.012039,171.434596 214.171911,170.749575 215.477571,170.312874 C218.989347,169.148339 222.657632,170.053851 225.268953,172.357234 L240.334429,157.160469 C238.499215,153.596218 238.777928,149.169269 241.245604,145.864042 L216.28155,132.401236 C210.71159,135.81778 203.737348,134.860891 199.213632,130.403972 L166.657879,140.150538 C167.063084,142.124255 166.882994,144.110817 166.231236,145.896153 L212.021538,172.295154 Z M256.300362,144.650271 C257.428075,145.769852 258.221333,147.09494 258.738023,148.514218 L290.534819,147.460998 C291.593927,142.034346 296.370628,138.271012 301.67474,138.598537 L311.168113,106.588784 C309.167815,105.411405 307.731375,103.379889 307.30473,101.005863 L276.929367,98.2036982 C275.031978,103.737385 270.000148,107.770446 263.973528,107.924576 C263.915642,107.924576 263.864187,107.918154 263.806301,107.920294 L253.656882,142.817839 C254.595928,143.284509 255.500672,143.864637 256.300362,144.650271 Z M245.143291,142.642302 C246.515413,142.01508 247.994732,141.738931 249.474052,141.771042 L258.04553,106.73007 C253.140192,104.544425 249.649855,99.5865845 249.512643,93.7163815 C249.484772,92.5282981 249.606977,91.3776772 249.844954,90.2666584 L213.265024,73.3498476 C211.905765,75.463994 210.126293,77.3011349 207.990928,78.6981497 L205.960616,105.469203 C211.616333,104.182648 217.692263,106.545971 221.000365,111.874151 C224.31061,117.206612 223.843231,123.909116 220.327167,128.678575 L245.143291,142.642302 Z M141.307916,90.6494137 L111.689364,137.622382 C113.273736,139.643194 114.19992,142.205602 114.180624,144.964952 L147.300232,139.84656 C147.804058,137.746542 148.938204,135.841327 150.556879,134.432753 L151.937577,90.876113 C148.374347,92.3435567 144.568851,92.1543198 141.307916,90.6494137 Z M164.638287,135.824202 L195.221613,123.307581 C193.855922,117.604781 195.939833,111.441731 200.776565,107.877481 L202.185134,81.1642262 C194.428354,82.8737821 186.553657,79.0016999 182.883229,71.8646362 L160.528351,77.9992147 C160.461889,82.4764699 158.328667,86.7488607 154.677534,89.3624306 L155.627301,132.133651 C159.079047,131.651995 162.485769,133.101243 164.638287,135.824202 Z M96.8447132,135.226949 C98.8492984,133.86761 101.289104,133.150479 103.863977,133.358126 C105.570555,133.497271 107.154928,134.034584 108.550634,134.85875 L137.648207,88.172206 C136.261077,86.8588924 135.107637,85.2375325 134.322954,83.3387397 L70.0990427,86.8933569 C69.9854138,87.4169706 69.7753076,87.9097577 69.4901633,88.3586602 L96.8447132,135.226949 Z M386.782785,104.80773 C390.086599,103.707415 393.630534,105.58266 394.696073,108.992781 C395.759468,112.405042 393.94355,116.063483 390.635448,117.161658 C387.327346,118.261973 383.783411,116.382446 382.72216,112.970185 C381.656621,109.560064 383.470396,105.901623 386.782785,104.80773 Z M357.172809,92.1037994 C360.506639,90.9949211 364.078445,92.8868642 365.150416,96.326312 C366.22453,99.7642616 364.393604,103.448391 361.059775,104.557269 C357.725946,105.666147 354.151995,103.778057 353.080025,100.335826 C352.00591,96.8978765 353.83898,93.210322 357.172809,92.1037994 Z M303.852984,40.385347 C299.800935,40.4776108 296.104779,38.1237069 294.338172,34.4582018 L266.078879,42.8096796 C266.863562,47.9028116 264.016407,52.7825167 259.409077,54.4918585 L264.07215,78.8111787 C271.114997,79.0376634 276.905783,84.597252 277.656163,91.7912583 L307.373336,97.7027763 C307.857867,95.5299748 309.150663,93.7339357 310.897976,92.6207757 L303.852984,40.385347 Z M28.3663639,82.8174818 C31.6729649,81.719521 35.2160426,83.5962649 36.2798663,87.0085263 C37.3458341,90.4184335 35.5273429,94.0773019 32.2228859,95.1767609 C28.9141409,96.2727951 25.3708488,94.3984062 24.3029516,90.9861448 C23.2410574,87.5738826 25.059763,83.9173685 28.3663639,82.8174818 Z M256.165293,55.125503 C252.014623,55.2333938 248.206982,52.7407732 246.515413,48.870832 L215.696254,58.9241592 C216.476648,62.1822908 216.348012,65.4736032 215.462564,68.5073905 L252.692108,84.1504899 C254.345087,82.0628879 256.555491,80.4633637 259.08963,79.5745489 L256.165293,55.125503 Z M344.752956,42.7833491 C349.000104,41.3730619 353.553836,43.7819814 354.919527,48.1667588 C356.289505,52.5491814 353.954753,57.2484263 349.705461,58.6608542 C345.458312,60.0711414 340.904581,57.6622218 339.538891,53.2774444 C338.171056,48.8926671 340.503664,44.195777 344.752956,42.7833491 Z M67.560616,43.892227 C71.1838771,42.684235 75.0665552,44.7390844 76.2307154,48.4790856 C77.3948754,52.2193009 75.4074419,56.2211086 71.7841808,57.4267458 C68.1587757,58.6257468 64.2803855,56.575393 63.1140813,52.8353918 C61.9456332,49.0996719 63.9373549,45.0933687 67.560616,43.892227 Z M182.05138,18.745744 C181.225963,20.7740487 179.800241,22.5429016 177.862118,23.7288445 L190.970176,46.7622514 C191.647662,46.4323709 192.342299,46.1286069 193.079815,45.8845681 C201.730619,43.0113327 210.949567,47.3717061 214.617851,55.714193 L245.614958,44.9612881 C245.561358,43.8151621 245.685707,42.6930119 245.975139,41.6282322 L182.05138,18.745744 Z M211.290454,0.194943977 C214.66073,-0.674176567 218.076028,1.44467938 218.91431,4.92073341 C219.756879,8.39892817 217.705127,11.9212211 214.334851,12.7901276 C210.968863,13.6592481 207.553564,11.5384655 206.708851,8.06433813 C205.872714,4.58614341 207.918034,1.06406452 211.290454,0.194943977 Z" id="Shape" fill="#CB184B"></path>
        </g>
    </g>
</svg>