<?xml version="1.0" encoding="utf-8"?>
<!-- Generator: Adobe Illustrator 23.0.1, SVG Export Plug-In . SVG Version: 6.00 Build 0)  -->
<svg version="1.1" id="Layer_1" xmlns="http://www.w3.org/2000/svg" xmlns:xlink="http://www.w3.org/1999/xlink" x="0px" y="0px"
	 viewBox="0 0 957 356" style="enable-background:new 0 0 957 356;" xml:space="preserve">
<style type="text/css">
	.st0{fill-rule:evenodd;clip-rule:evenodd;fill:#2A2A2A;}
	.st1{fill:#2A2A2A;}
	.st2{fill-rule:evenodd;clip-rule:evenodd;fill:#FFFFFF;}
	.st3{fill:#FFFFFF;}
</style>
<title>inova</title>
<desc>Created with Sketch.</desc>
<g id="mind" transform="translate(732.421846, 232.000000)">
	<polygon id="Shape" class="st0" points="0.1,0.4 11.9,0.4 35.5,56 58.7,0.4 70.5,0.4 70.5,85.8 58,85.8 58,32.5 57.7,32.5 
		40.5,73.5 30.1,73.5 12.9,32.5 12.6,32.5 12.6,85.8 0.1,85.8 	"/>
	<path class="st1" d="M87.1,25h11.8v60.8H87.1V25z M87.1,0.4h11.8v12.2H87.1V0.4z"/>
	<path class="st0" d="M114.5,25h11.8v6.4h0.2c3.9-4.8,9-7.2,15.3-7.2c4.9,0,9.3,1.8,13.3,5.3c4,3.6,6.1,8.9,6.3,15.8v40.4h-11.8
		V49.6c0-4.3-1.1-7.5-3.3-9.7c-2.1-2.3-4.9-3.4-8.3-3.4c-3.4,0-6.2,1.1-8.4,3.4c-2.2,2.2-3.3,5.5-3.3,9.7v36.2h-11.8V25z"/>
	<path class="st1" d="M211.7,79.4c-3.9,4.6-8.9,6.9-15.2,7.1c-3.5-0.1-6.6-0.8-9.1-2.3c-2.6-1.4-4.8-3.3-6.6-5.6
		c-1.6-1.9-2.7-4.5-3.2-7.8c-0.6-3.1-1-8.3-1-15.5c0-7.3,0.3-12.5,1-15.6c0.5-3.1,1.6-5.6,3.2-7.6c3.3-5.1,8.6-7.8,15.7-8
		c3,0,5.8,0.6,8.4,1.9c2.4,1.4,4.7,3.1,6.8,5.3v-31h11.8v85.4h-11.8L211.7,79.4L211.7,79.4z M200.2,36.5c-2.8,0-4.9,0.5-6.4,1.5
		c-1.6,1.1-2.8,2.5-3.6,4.3c-0.7,1.8-1.2,3.8-1.4,6c-0.2,2.3-0.3,4.7-0.3,7.1c0,2.3,0.1,4.5,0.3,6.7c0.2,2.3,0.7,4.4,1.4,6.2
		c0.8,1.8,1.9,3.2,3.6,4.3c1.5,1.1,3.6,1.6,6.4,1.6c2.8,0,5-0.6,6.6-1.8c1.6-1.1,2.7-2.6,3.3-4.5c0.8-1.8,1.3-3.9,1.5-6.2
		c0.1-2.2,0.1-4.4,0.1-6.6c0-2.3,0-4.6-0.1-6.7c-0.3-2.1-0.8-4.1-1.5-6c-0.6-1.8-1.7-3.3-3.3-4.5C205.2,37,202.9,36.5,200.2,36.5z"
		/>
</g>
<g transform="translate(426.000000, 37.000000)">
	<path class="st2" d="M63,54.1h25.8v14.1h0.5c8.5-10.5,19.6-15.7,33.3-15.7c10.6,0,20.3,3.9,29.1,11.6c8.7,7.8,13.3,19.4,13.7,34.5
		v88.3h-25.8v-79c0-9.3-2.4-16.4-7.2-21.2c-4.7-4.9-10.7-7.4-18.1-7.4s-13.5,2.5-18.2,7.4c-4.8,4.9-7.3,11.9-7.3,21.2v79H63V54.1z"
		/>
	<path class="st3" d="M192.4,120.4c0-14,1.1-24.7,3.3-32.2c2.3-7.3,5.8-13.5,10.6-18.5c3.5-4.4,8.5-8.4,14.8-11.9
		c6.2-3.3,14.3-5.1,24-5.2c10.1,0.2,18.3,1.9,24.5,5.2c6.2,3.5,10.9,7.5,14.3,11.9c5.1,5,8.7,11.2,10.9,18.5
		c2.1,7.5,3.1,18.2,3.1,32.2s-1,24.6-3.1,32c-2.1,7.3-5.8,13.7-10.9,19.1c-1.6,2-3.7,3.9-6,5.8c-2.1,2.1-4.9,4-8.3,5.5
		c-6.2,3.7-14.4,5.6-24.5,5.8c-9.8-0.2-17.8-2.1-24-5.8c-6.3-3.3-11.3-7.1-14.8-11.3c-4.8-5.4-8.3-11.7-10.6-19.1
		C193.5,145,192.4,134.3,192.4,120.4z M272.1,120.6c0-9.5-0.4-16.4-1.2-20.7c-0.8-4.2-2.5-7.8-5.1-11c-1.9-3-4.7-5.3-8.4-7
		c-3.5-1.8-7.6-2.7-12.3-2.7c-4.4,0-8.4,0.9-12.1,2.7c-3.5,1.7-6.4,4-8.6,7c-2.2,3.2-3.8,6.8-4.8,11c-1,4.4-1.5,11.2-1.5,20.5
		c0,9.2,0.5,15.9,1.5,20.2s2.6,8.2,4.8,11.5c2.2,2.6,5.1,4.8,8.6,6.8c3.7,1.9,7.7,2.8,12.1,2.8c4.7,0,8.8-0.9,12.3-2.8
		c3.7-2,6.5-4.2,8.4-6.8c2.6-3.3,4.2-7.2,5.1-11.5C271.7,136.3,272.1,129.6,272.1,120.6z"/>
	<polygon class="st2" points="306.8,54.1 334,54.1 364.1,147.1 364.6,147.1 394.6,54.1 422,54.1 375,186.9 353.8,186.9 	"/>
	<path class="st3" d="M504.2,175.1h-0.5c-2.4,4.5-6.1,7.8-11.1,10c-4.9,2.2-11.8,3.3-20.5,3.3c-14.3-0.2-25.3-4.1-33-11.8
		c-8.1-7.5-12.2-17.1-12.2-28.8c0-11.2,3.5-20.4,10.6-27.8c7.1-7.5,17.4-11.3,31.1-11.5h35.6V94.6c0.2-11.7-8.6-17.4-26.3-17
		c-6.4,0-11.5,0.7-15.2,2c-3.9,1.6-6.9,4.3-9.1,8.2l-20.2-16c9.8-13.3,24.2-19.8,43.3-19.4c16.1-0.2,29,3,38.6,9.5
		c9.6,6.7,14.5,18.1,14.7,34.3v90.7h-25.8V175.1z M504.2,130.6h-30.8c-15,0.3-22.4,5.7-22.2,16c0,4.5,1.9,8.4,5.8,11.5
		c3.7,3.5,9.8,5.2,18.4,5.2c10.8,0.2,18.4-1.2,22.8-4c4-2.8,6-9.2,6-19.2L504.2,130.6L504.2,130.6z"/>
	<path class="st3" d="M0.2,54.4l27.3-14.9v147.4H0.2V54.4z M27.5,16.7l-27.3,15V0.4h27.3V16.7z"/>
</g>
<path id="Shape_1_" class="st1" d="M157.5,321.7l-16.4,15.9c0.7,0.9,1.2,1.9,1.5,3.1c1,4.3-1.6,8.5-5.7,9.5c-4.1,1-8.3-1.6-9.2-5.9
	c-0.9-3.9,1.2-7.8,4.8-9.2l1.3-37c-1.4-0.3-2.5-1.2-3.2-2.5l-36.7-4.1c-0.1,0.5-0.3,0.9-0.5,1.4c-1.4,2.4-4.4,3.1-6.7,1.7
	c-1.8-1.1-2.6-3.2-2.2-5.2l-23-12.7c-0.9,0.9-2,1.4-3.4,1.6c-3.3,0.4-6.4-2-6.8-5.5c-0.4-3.1,1.4-5.9,4.2-6.8l-4.7-26.5
	c-2.7-0.3-5-2.4-5.4-5.3c-0.2-1.7,0.2-3.3,1.1-4.6l-29.8-27.8c-0.5,0.2-1,0.4-1.6,0.5c-2.7,0.3-5.1-1.7-5.4-4.4
	c-0.2-2.2,0.9-4.1,2.7-5.1l-3.2-40.5c-2.5-0.6-4.5-2.8-4.8-5.6c-0.3-3.5,2.2-6.5,5.5-6.8c0.4,0,0.9,0,1.3,0l21.9-50.2L66.2,56
	l1.5,2.6L36.8,89.3l30.7-2.1l0.2,3.7L35,92.1L58.4,125l-2.9,2.1L33.3,94.3l-20.1,46.5c1.6,1,2.8,2.8,3,4.9c0.1,0.8,0,1.6-0.2,2.4
	l32,18.8c1.2-0.9,2.6-1.4,4-1.3l4-34.6l5.7,1.5L83,186c0.7,0,1.4,0.1,2.1,0.3c3.3,1.1,5.3,4.3,5.1,7.7l40.3,1.7l2.7,41.8
	c1.5,0.3,2.8,1.3,3.5,2.8l38-4.2l0.3,3.7l-37.9,3.5c0,0.2,25.1,19.4,33.2,25.6c0.8-0.8,1.7-1.5,2.7-2c3.1-1.5,6.6-1.1,9.4,0.6
	l24.2-18.5c-0.2-0.4-31.1-9.4-31.1-9.4l0.2-3.5l30.4,7c0.9-3.4,3.7-6,7.2-6.5l-0.9-48.1l5.7,1l-0.4,47.8c2.2,1,3.9,2.8,4.7,5.2
	l26.8-3c0.2-0.5,0.5-0.9,0.8-1.3l-31-48.8l4.6-3.1l28.9,50.1c0.7-0.3,1.5-0.4,2.3-0.4l7.4-34.6l3.5,0.8l-7.9,34.7
	c0.5,0.3,0.9,0.7,1.3,1.1l18.5-9.4c-0.6-1.9-0.1-4,1.4-5.4c1.4-1.3,3.3-1.5,5-0.8l8.8-16.3c-0.5-0.7-0.8-1.5-1-2.3l-20-4.6l1.4-3.6
	l19.4,4.5c0.5-0.8,1.3-1.4,2.2-1.8l-0.7-37.7l6-0.3l-1.4,38.1c0.6,0.3,1.2,0.7,1.7,1.3l18.7-6.4c0-2.6,1.5-5.1,4-6
	c2.2-0.8,4.6-0.3,6.2,1.2l16.1-9.8c-0.2-0.6-0.3-1.2-0.3-1.9l-41.5-18.6l2.6-4.5l39.7,20.5c0.6-0.9,1.5-1.7,2.5-2l-3.7-27.1
	c-1.5-0.5-2.6-1.6-3.1-3l-35,8.6l-1.2-4.5l36.1-7.3c0.6-2,2.3-3.5,4.4-3.6l5.5-32.6l-34.5,2.4l0.2-4.4l35.1-0.7l15.5-16.7
	c-0.7-1.5-0.5-3.3,0.3-4.7l-21.6-18.3L348,58l21.9,18.8c2.2-1.2,4.9-0.6,6.3,1.6s1,5.1-0.9,6.7c0,0,8.7,28.9,8.8,29.3l-8.6,32.6
	c2.8,1.8,3.7,5.6,2,8.6c-1.6,2.8-5,3.8-7.8,2.4l-15.1,16.9c0.4,0.9,0.6,1.9,0.4,2.9c-0.4,2.8-2.9,4.7-5.6,4.2
	c-0.8-0.1-1.5-0.4-2.1-0.9l-16,10.6c0.8,3.1-0.8,6.4-3.7,7.5c-2.6,1-5.5,0-7.1-2.2l-18.6,6.5c-0.1,2.5-2,4.5-4.5,4.7
	c-0.4,0-0.8,0-1.2-0.1l-9.7,16.2c1.5,2.1,1.2,5-0.7,6.8c-1.8,1.6-4.5,1.6-6.3,0.1l-18.4,10.3c0.2,1,0.2,2.1-0.2,3.2
	c-1.1,3.3-4.5,5.1-7.7,4c-2.2-0.7-3.6-2.6-4-4.8l-26,3.4c-0.6,4.1-3.9,7.3-8.1,7.5c-2,0.1-3.8-0.5-5.3-1.6L185.6,271
	c0.3,0.5,0.6,1,0.9,1.5c2.3,5,0.2,11-4.7,13.4c-2.2,1-4.5,1.2-6.7,0.6l-9.6,26.8c1.5,1.1,2.4,2.8,2.4,4.8c0,3.3-2.7,5.9-5.9,5.9
	C159.9,323.2,158.6,322.7,157.5,321.7z M161.3,311.4l9.3-28c-0.5-0.5-0.9-1-1.3-1.5l-29.7,11c0.2,2.1-1,4.1-2.9,5l-1.7,36.7
	c1.4,0,2.8,0.4,4,1.1l16.9-16.6c-0.2-0.6-0.3-1.2-0.3-1.8C155.5,314.1,158.1,311.5,161.3,311.4z M93.7,289l36.1,4.2
	c0-0.8,0.2-1.6,0.5-2.3l-26.5-21.7l-11.3,17.6C93.1,287.5,93.5,288.2,93.7,289z M133.5,288.4c2-0.5,4,0.4,5.1,2l29.1-11.6
	c-0.7-2.5-0.4-5.1,0.7-7.3c0,0-34.3-24.3-34.7-24.2c-1.4,0.5-2.8,0.2-4-0.5l-21.3,16.7c0.2,1.2-0.1,2.4-0.6,3.3
	C107.9,266.8,133.1,288.5,133.5,288.4z M93.9,236.5L61.8,268c0.7,0.9,1.3,2,1.4,3.3c0.1,0.8,0,1.6-0.1,2.3L85.4,287
	c1.3-1.5,3.2-2,5-1.5l10.5-17.2c-0.9-0.6-1.6-1.5-1.9-2.6c-0.7-2.1,0.1-4.4,1.8-5.6l-3.9-23.5C95.9,236.9,94.8,236.8,93.9,236.5z
	 M90.2,233.2l-33.1,1.4c-0.4,2.1-1.9,3.9-3.9,4.7l5.6,26.7c0.3,0.1,28.2-25.9,32.3-31.5C90.7,234.1,90.4,233.7,90.2,233.2z
	 M100.2,234.8l3.5,24.4c0.9,0,1.8,0.3,2.5,0.8l21.4-16.2c-0.7-2.5,0.6-5,2.9-6l-3.3-38.5l-38-1.8c-1.5,2.6-4.4,4.1-7.3,3.6l-26,28.3
	c0.6,0.7,1,1.6,1.2,2.5l32.7-2.5c0.4-2.2,1.9-4.1,4.1-4.8c3.2-1.1,6.6,0.8,7.7,4.1C102.2,230.8,101.6,233.1,100.2,234.8z M48,228
	c0.7-0.4,1.4-0.7,2.2-0.8c1.2-0.2,2.4,0,3.5,0.5l24.8-28.1c-2-1.5-3.1-4-2.9-6.6l-56.7,5.9c-0.1,0.4-0.3,0.9-0.6,1.2L48,228z
	 M58.9,133.8l-3.4,33c0.3,0.2,0.5,0.5,0.8,0.7c2.3,2.5,2.2,6.5-0.3,8.9c-2.1,2-5.2,2.2-7.5,0.6l-30.1,17.6c0.3,0.5,0.5,1,0.6,1.6
	l57.4-6.3c0.9-1.7,2.4-3,4.2-3.6L58.9,133.8z M14.5,192.3c0.7,0,1.4,0.2,2,0.6l29.8-18.5c-0.6-1.4-0.7-3.1-0.2-4.5l-31.4-19.4
	c-0.9,1-2,1.7-3.4,2L14.5,192.3z M351,171.6c0.7,0.2,1.3,0.5,1.8,1l14.3-16.8c-1.6-2-1.9-4.9-0.5-7.2c1.2-2.1,3.5-3.2,5.8-3
	l7.7-29.1l-29.6,21.8c0.2,0.6,0.2,1.3,0.2,2c-0.2,1.8-1.3,3.2-2.8,4L351,171.6z M348.3,135.4l30.9-22l-25-9.3
	C352.3,114,348.3,135.4,348.3,135.4z M372.7,85.6c-1.3,0.2-2.7-0.1-3.7-0.9l-13,15.7l24.3,10.3L372.7,85.6z M312.8,95.3L336.3,59
	l2,1.7L315.9,98L312.8,95.3z M136,74.5l-1.3,3.6l-25.9-11.8l1.5-3.5L136,74.5z M97.8,58.5L97,62.1l-19.3-5.5l0.4-2.8L97.8,58.5z
	 M271.1,21.4c-1.5,2.3-4.3,3.4-6.9,2.4c-2.4-0.8-4-3.1-4.2-5.6l-48-6.5l-42.7,9L129.2,22l1.6,2.2l-21.9,33.2l-2.9-2.1L127.9,24
	L78,53.1l-2.2-3.7l52.4-28.8l41.7-3.6L212,9.6l48.5,5.7c1.3-2.9,4.5-4.5,7.5-3.4c2.7,0.9,4.4,3.6,4.2,6.5l21,8.7l-2.4,3.7
	L271.1,21.4z M307,38.5l1.2-4.4l28.3,15.4l-1.5,2.7L307,38.5z"/>
<path class="st3" d="M57.7,122c3.2-0.3,6.1,2,6.6,5.3L93.2,144c0.3-2,1-3.9,2.2-5.4L69.6,92.1c-0.1,0-0.2,0.1-0.3,0.1
	c-2.2,0.7-4.5-0.5-5.2-2.8c-0.7-2.2,0.5-4.6,2.7-5.4c1.2-0.4,2.4-0.2,3.4,0.4l26.6-19.5c-1.7-3.4-0.8-7.6,2.3-9.8
	c3.4-2.4,8-1.6,10.3,1.9s1.5,8.2-1.9,10.6c-3,2.1-6.9,1.7-9.4-0.8L71.8,86.4v0.1l61.6-6.6c0.2-5.1,3.1-9.9,7.9-12.1l-9-41.2
	c-2.9,0.5-5.9-1.2-6.8-4.3c-1-3.3,0.7-6.9,3.9-7.9c3.2-1.1,6.7,0.7,7.7,4.1c1,3.1-0.5,6.4-3.4,7.7l10.6,40.7
	c5.9-1.1,12,2.2,14.5,8.2v0.1l20.8-6.7c-0.8-6.2,1.7-12.3,6.3-16.1l-11-23.7c-4.8,1.8-10.2-0.4-12.4-5.3c-2.3-5.1-0.1-11.2,4.8-13.6
	c5-2.4,10.9-0.2,13.2,5c0.9,2,1.1,4.2,0.7,6.2l63.3,20.6c1.4-1.8,3.5-3.2,5.9-3.7c4.2-0.9,8.3,1.1,10.4,4.6l27.9-7.4
	c-0.8-5.6,2.9-10.8,8.3-11.7c5.5-1,10.7,2.9,11.6,8.5c0.9,5.3-2.3,10.3-7.1,11.7l10.1,50.2c3.6,1,6.1,4.5,5.7,8.5
	c-0.4,4.2-3.9,7.2-7.9,7l0,0l-8.1,31.5c3.7,2.1,5.9,6.5,5.2,11c-0.9,5.9-6.2,9.9-11.9,9c-4.3-0.7-7.6-4-8.5-8.1l-30.8,3.1
	c-0.4,1.4-1.2,2.8-2.2,4c-0.7,0.8-1.6,1.4-2.5,1.9l12.9,23.7c4.2-1,8.4,1.5,9.8,5.7c1.4,4.5-1,9.4-5.4,10.9s-9.1-1-10.5-5.6
	c-1.2-3.8,0.3-7.8,3.4-9.9l-14.6-23.7c-2,0-4-0.6-5.8-1.8l-15.8,13.5c0.4,0.7,0.8,1.4,1,2.3c1.7,5.4-1.2,11.2-6.4,12.9
	s-10.8-1.2-12.5-6.6c-0.1-0.5-0.2-0.9-0.3-1.4l-26.7,2c0,3.5-2.3,6.7-5.8,7.5l0,0l1,40c2.7-0.2,5.3,1.5,6.2,4.3
	c1,3.3-0.7,6.9-3.9,7.9c-3.2,1.1-6.7-0.8-7.7-4.1c-1-3,0.5-6.3,3.2-7.6l-1.5-40.5c-2.1-0.3-3.9-1.6-5.1-3.4l-31.5,8.9
	c0.1,3-1.9,5.7-4.8,6.4c-1.9,0.4-3.7-0.1-5.1-1.2c0,0-25,24.4-24.9,24.3c-0.4-0.6-0.9-0.9-1.5-1.2l25-24.6c-0.4-0.6-0.7-1.3-0.8-2
	c-0.6-2.9,0.8-5.7,3.2-7L106,156.5c-0.9,0.2-1.9,0.2-2.8,0.2c-4.6-0.4-8.3-3.6-9.5-7.9L64.2,130c-0.7,2.4-2.7,4.3-5.3,4.5
	c-3.4,0.3-6.3-2.2-6.7-5.7C51.9,125.4,54.4,122.3,57.7,122z M128.4,190.6c2.4-0.1,4.5,1.3,5.6,3.4l31.1-9.4
	c-0.4-3.4,1.4-6.6,4.3-7.9l-13.6-23.8c-3.9-0.2-7.4-2.8-8.7-6.9c-0.3-0.9-0.4-1.8-0.4-2.7l-33.1,7.3c-0.9,1.8-2.3,3.3-3.9,4.4
	L128.4,190.6z M347.2,169.7c3.2-1.1,6.7,0.8,7.7,4.1s-0.7,6.9-3.9,7.9c-3.2,1.1-6.7-0.8-7.7-4.1C342.2,174.3,344,170.8,347.2,169.7z
	 M173,176.1c2.7,0.2,5.1,1.9,6.2,4.6l27.3-2.6c0.2-1.3,0.7-2.5,1.4-3.6l-46.3-23.1c-0.6,0.4-1.3,0.8-2,1L173,176.1z M209.9,172.1
	c1-0.8,2.1-1.5,3.4-1.9c3.4-1.1,7-0.3,9.5,2l14.6-14.8c-1.8-3.5-1.5-7.8,0.9-11L214,133.3c-5.4,3.3-12.2,2.4-16.6-1.9l-31.6,9.5
	c0.4,1.9,0.2,3.8-0.4,5.6L209.9,172.1z M252.9,145.2c1.1,1.1,1.9,2.4,2.4,3.8l30.9-1c1-5.3,5.7-8.9,10.8-8.6l9.2-31.1
	c-1.9-1.1-3.3-3.1-3.8-5.4l-29.5-2.7c-1.8,5.4-6.7,9.3-12.6,9.4c-0.1,0-0.1,0-0.2,0l-9.9,33.9C251.2,143.9,252.1,144.4,252.9,145.2z
	 M242.1,143.3c1.3-0.6,2.8-0.9,4.2-0.8l8.3-34c-4.8-2.1-8.2-6.9-8.3-12.6c0-1.2,0.1-2.3,0.3-3.4L211.1,76c-1.3,2.1-3,3.8-5.1,5.2
	l-2,26c5.5-1.2,11.4,1,14.6,6.2c3.2,5.2,2.8,11.7-0.7,16.3L242.1,143.3z M141.2,92.8l-28.8,45.6c1.5,2,2.4,4.5,2.4,7.1l32.2-5
	c0.5-2,1.6-3.9,3.2-5.3l1.3-42.3C148.1,94.4,144.4,94.2,141.2,92.8z M163.9,136.6l29.7-12.2c-1.3-5.5,0.7-11.5,5.4-15l1.4-25.9
	c-7.5,1.7-15.2-2.1-18.7-9l-21.7,6c-0.1,4.3-2.1,8.5-5.7,11l0.9,41.5C158.5,132.6,161.8,134,163.9,136.6z M98,136.1
	c1.9-1.3,4.3-2,6.8-1.8c1.7,0.1,3.2,0.7,4.6,1.5l28.3-45.3c-1.3-1.3-2.5-2.8-3.2-4.7l-62.4,3.5c-0.1,0.5-0.3,1-0.6,1.4L98,136.1z
	 M379.6,106.5c3.2-1.1,6.7,0.8,7.7,4.1c1,3.3-0.7,6.9-3.9,7.9c-3.2,1.1-6.7-0.8-7.7-4.1C374.6,111.1,376.4,107.6,379.6,106.5z
	 M350.9,94.2c3.2-1.1,6.7,0.8,7.7,4.1c1,3.3-0.7,6.9-4,8c-3.2,1.1-6.7-0.8-7.7-4.1C345.8,98.8,347.6,95.3,350.9,94.2z M299.1,44
	c-3.9,0.1-7.5-2.2-9.2-5.8l-27.4,8.1c0.8,4.9-2,9.7-6.5,11.3l4.5,23.6c6.8,0.2,12.5,5.6,13.2,12.6l28.9,5.7c0.5-2.1,1.7-3.9,3.4-4.9
	L299.1,44z M31.5,85.2c3.2-1.1,6.7,0.8,7.7,4.1c1,3.3-0.7,6.9-3.9,7.9c-3.2,1.1-6.7-0.8-7.7-4.1C26.6,89.8,28.3,86.2,31.5,85.2z
	 M252.8,58.3c-4,0.1-7.7-2.3-9.4-6.1L213.5,62c0.8,3.2,0.6,6.4-0.2,9.3l36.2,15.2c1.6-2,3.8-3.6,6.2-4.4L252.8,58.3z M338.8,46.3
	c4.1-1.4,8.5,1,9.9,5.2c1.3,4.3-0.9,8.8-5.1,10.2c-4.1,1.4-8.5-1-9.9-5.2C332.4,52.2,334.7,47.7,338.8,46.3z M69.6,47.4
	c3.5-1.2,7.3,0.8,8.4,4.5c1.1,3.6-0.8,7.5-4.3,8.7s-7.3-0.8-8.4-4.5C64.1,52.4,66.1,48.5,69.6,47.4z M180.8,22.9
	c-0.8,2-2.2,3.7-4.1,4.8l12.7,22.4c0.7-0.3,1.3-0.6,2-0.9c8.4-2.8,17.4,1.4,20.9,9.5l30.1-10.4c-0.1-1.1,0.1-2.2,0.3-3.2L180.8,22.9
	z M209.2,4.9c3.3-0.8,6.6,1.2,7.4,4.6c0.8,3.4-1.2,6.8-4.4,7.6c-3.3,0.8-6.6-1.2-7.4-4.6C203.9,9.2,205.9,5.8,209.2,4.9z"/>
</svg>
